<?xml version="1.0" encoding="utf-8"?>
<!-- Generator: Adobe Illustrator 17.0.0, SVG Export Plug-In . SVG Version: 6.00 Build 0)  -->
<!DOCTYPE svg PUBLIC "-//W3C//DTD SVG 1.1//EN" "http://www.w3.org/Graphics/SVG/1.1/DTD/svg11.dtd">
<svg version="1.1" id="Layer_1" xmlns="http://www.w3.org/2000/svg" xmlns:xlink="http://www.w3.org/1999/xlink" x="0px" y="0px"
	 width="279.258px" height="317.391px" viewBox="0 0 279.258 317.391" enable-background="new 0 0 279.258 317.391"
	 xml:space="preserve">
<path fill="#F05F40" d="M139.629,0c-28.443,0-51.501,71.05-51.501,158.696s23.058,158.696,51.501,158.696
	s51.501-71.05,51.501-158.696S168.072,0,139.629,0z M139.878,312.419c-27.552,0-49.887-68.824-49.887-153.724
	S112.326,4.972,139.878,4.972s49.887,68.824,49.887,153.723S167.43,312.419,139.878,312.419z"/>
<path fill="#F05F40" d="M276.811,78.911c-14.3-24.587-87.31-8.798-163.074,35.265S-11.852,213.893,2.447,238.48
	s87.31,8.798,163.074-35.265S291.11,103.499,276.811,78.911z M6.871,236.195c-13.852-23.817,34.413-77.726,107.803-120.409
	s144.113-57.977,157.964-34.16c13.852,23.817-34.413,77.726-107.803,120.409S20.722,260.012,6.871,236.195z"/>
<path fill="#F05F40" d="M4.492,75.495c-14.912,24.221,33.502,81.106,108.136,127.056s147.226,63.566,162.138,39.345
	S241.264,160.79,166.63,114.84C95.348,70.953,17.196,54.86,4.492,75.495z M270.662,239.078
	c-14.445,23.462-84.762,6.398-157.058-38.112S-5.588,101.352,8.857,77.89s84.762-6.398,157.058,38.112
	S285.107,215.616,270.662,239.078z"/>
<path d="M162.935,131.957c-5.717-6.322-13.921-9.483-24.612-9.483h-21.182v33.266h13.378v-19.171h7.46
	c6.802,0,11.847,1.917,15.135,5.752c3.288,3.834,4.931,9.311,4.931,16.426c0,7.117-1.643,12.54-4.931,16.271
	s-7.99,5.596-14.107,5.596h-8.489v-16.363H117.14v30.665h20.496c11.434,0,19.937-3.281,25.511-9.846
	c5.574-6.563,8.362-15.476,8.362-26.738C171.511,147.072,168.652,138.279,162.935,131.957z"/>
</svg>
